<svg width="178" height="127" viewBox="0 0 178 127" fill="none" xmlns="http://www.w3.org/2000/svg">
<path fill-rule="evenodd" clip-rule="evenodd" d="M90.561 23.6023C89.3338 22.8227 87.7665 22.8227 86.5393 23.6023L48.0991 48.0225C46.977 48.7354 46.4312 49.811 46.3611 50.9028H46.208V99.341C46.208 100.722 47.3273 101.841 48.708 101.841H128.391C129.772 101.841 130.891 100.722 130.891 99.341V50.9028H130.739C130.669 49.811 130.123 48.7354 129.001 48.0225L90.561 23.6023Z" fill="white" fill-opacity="0.3"/>
<path d="M86.5393 23.6023L86.4723 23.4968V23.4968L86.5393 23.6023ZM90.561 23.6023L90.628 23.4968V23.4968L90.561 23.6023ZM48.0991 48.0225L48.0321 47.917L48.0991 48.0225ZM46.3611 50.9028V51.0278H46.4783L46.4858 50.9108L46.3611 50.9028ZM46.208 50.9028V50.7778H46.083V50.9028H46.208ZM130.891 50.9028H131.016V50.7778H130.891V50.9028ZM130.739 50.9028L130.615 50.9108L130.622 51.0278H130.739V50.9028ZM129.001 48.0225L128.934 48.128L129.001 48.0225ZM86.6064 23.7078C87.7927 22.9542 89.3077 22.9542 90.4939 23.7078L90.628 23.4968C89.3599 22.6912 87.7404 22.6912 86.4723 23.4968L86.6064 23.7078ZM48.1662 48.128L86.6064 23.7078L86.4723 23.4968L48.0321 47.917L48.1662 48.128ZM46.4858 50.9108C46.5535 49.8568 47.0794 48.8184 48.1662 48.128L48.0321 47.917C46.8745 48.6524 46.3089 49.7652 46.2363 50.8948L46.4858 50.9108ZM46.208 51.0278H46.3611V50.7778H46.208V51.0278ZM46.333 99.341V50.9028H46.083V99.341H46.333ZM48.708 101.716C47.3963 101.716 46.333 100.653 46.333 99.341H46.083C46.083 100.791 47.2582 101.966 48.708 101.966V101.716ZM128.391 101.716H48.708V101.966H128.391V101.716ZM130.766 99.341C130.766 100.653 129.703 101.716 128.391 101.716V101.966C129.841 101.966 131.016 100.791 131.016 99.341H130.766ZM130.766 50.9028V99.341H131.016V50.9028H130.766ZM130.739 51.0278H130.891V50.7778H130.739V51.0278ZM128.934 48.128C130.021 48.8184 130.547 49.8568 130.615 50.9108L130.864 50.8948C130.791 49.7652 130.226 48.6524 129.068 47.917L128.934 48.128ZM90.4939 23.7078L128.934 48.128L129.068 47.917L90.628 23.4968L90.4939 23.7078Z" fill="url(#paint0_linear_1627_1925)" fill-opacity="0.7"/>
<rect width="64.0928" height="40.6956" rx="2.49997" transform="matrix(0.992688 -0.120705 0.123045 0.992401 53.7354 38.7563)" fill="url(#paint1_linear_1627_1925)"/>
<path d="M81.7521 50.13L83.0404 60.5203L80.9558 60.7738L80.4076 56.3527L75.9554 56.8941L76.5036 61.3152L74.419 61.5686L73.1307 51.1783L75.2153 50.9249L75.745 55.1971L80.1972 54.6557L79.6675 50.3835L81.7521 50.13ZM85.3029 50.8769C84.9356 50.9215 84.6137 50.8448 84.3373 50.6468C84.0695 50.4376 83.9141 50.1593 83.871 49.8119C83.8279 49.4646 83.9114 49.1623 84.1213 48.9051C84.3399 48.6368 84.6329 48.4803 85.0002 48.4356C85.3675 48.3909 85.685 48.4732 85.9528 48.6824C86.2293 48.8805 86.389 49.1532 86.4321 49.5005C86.4752 49.8479 86.3874 50.1557 86.1687 50.4241C85.9588 50.6813 85.6702 50.8322 85.3029 50.8769ZM86.4521 51.7344L87.4746 59.9812L85.39 60.2346L84.3675 51.9879L86.4521 51.7344ZM93.366 50.7728C94.3488 50.6533 95.1817 50.8694 95.8647 51.421C96.5466 51.9626 96.9564 52.7892 97.0942 53.9007L97.694 58.7385L95.6094 58.992L95.0446 54.437C94.9634 53.782 94.7375 53.3007 94.3668 52.9932C93.995 52.6758 93.5261 52.5515 92.9603 52.6203C92.3845 52.6903 91.9501 52.9245 91.6568 53.3228C91.3723 53.7099 91.2707 54.231 91.3519 54.886L91.9166 59.441L89.832 59.6945L88.8095 51.4478L90.8942 51.1943L91.0215 52.2214C91.2552 51.8304 91.5731 51.5096 91.9753 51.2593C92.3863 50.9977 92.8498 50.8356 93.366 50.7728ZM101.591 51.6313L102.086 55.6207C102.12 55.8986 102.21 56.0942 102.355 56.2075C102.509 56.3097 102.744 56.3415 103.062 56.3028L104.03 56.1851L104.248 57.9417L102.937 58.101C101.18 58.3146 100.196 57.568 99.9843 55.8611L99.4915 51.8866L98.5088 52.0061L98.2965 50.2942L99.2793 50.1747L99.0264 48.1354L101.126 47.8801L101.379 49.9194L103.225 49.6949L103.437 51.4068L101.591 51.6313Z" fill="url(#paint2_linear_1627_1925)"/>
<rect width="52.6734" height="15.5354" rx="7.76771" transform="matrix(0.982214 -0.187766 0.191328 0.981526 73.0713 84.1641)" fill="#D9D9D9"/>
<path d="M86.8101 92.4227L85.7817 92.6346L82.7145 89.5987L83.4532 93.1144L82.4248 93.3263L81.3468 88.1959L82.3752 87.984L85.444 91.0272L84.7038 87.5042L85.7322 87.2923L86.8101 92.4227ZM91.3106 89.2824C91.3414 89.4292 91.3594 89.5633 91.3645 89.6848L88.3895 90.2978C88.4757 90.5863 88.6268 90.7951 88.843 90.9241C89.0591 91.0532 89.2994 91.0904 89.5639 91.0359C89.9458 90.9572 90.1832 90.7373 90.2759 90.3762L91.3851 90.1476C91.3498 90.5633 91.1924 90.9327 90.9129 91.2557C90.6323 91.5739 90.2496 91.7829 89.7648 91.8828C89.373 91.9635 89.0025 91.9506 88.6531 91.8439C88.3075 91.7313 88.0132 91.5341 87.7701 91.2524C87.5319 90.9697 87.3691 90.6204 87.2817 90.2044C87.1933 89.7836 87.2013 89.3965 87.3059 89.0432C87.4105 88.6898 87.599 88.3957 87.8716 88.1609C88.1441 87.9261 88.4812 87.7673 88.8827 87.6845C89.2696 87.6048 89.6323 87.6169 89.9709 87.7207C90.3143 87.8235 90.6017 88.0118 90.833 88.2858C91.0681 88.5538 91.2273 88.886 91.3106 89.2824ZM90.1838 89.2083C90.1234 88.9451 89.9837 88.7543 89.7647 88.6361C89.5447 88.513 89.3 88.4791 89.0307 88.5346C88.776 88.5871 88.577 88.7098 88.4336 88.9027C88.2941 89.0897 88.2335 89.3242 88.2519 89.6063L90.1838 89.2083ZM94.9016 90.7555L93.7989 89.6656L93.3222 91.0809L92.2204 91.3079L93.1213 88.9935L91.3514 87.2448L92.512 87.0056L93.6057 88.0897L94.0913 86.6802L95.1931 86.4532L94.2819 88.7544L96.0622 90.5163L94.9016 90.7555ZM97.288 86.9021L97.7012 88.8692C97.73 89.0062 97.7829 89.0999 97.86 89.1504C97.9409 89.195 98.0597 89.2012 98.2164 89.1689L98.6938 89.0705L98.8758 89.9366L98.2294 90.0698C97.3626 90.2484 96.8408 89.9168 96.664 89.0752L96.2522 87.1155L95.7674 87.2154L95.5901 86.3714L96.0749 86.2715L95.8636 85.266L96.8994 85.0525L97.1106 86.0581L98.0215 85.8704L98.1988 86.7145L97.288 86.9021ZM102.407 89.209L100.856 87.4457L100.371 87.5456L100.791 89.542L99.7624 89.7539L98.686 84.6308L100.611 84.2343C101.007 84.1525 101.36 84.1538 101.669 84.2382C101.977 84.3177 102.225 84.4632 102.412 84.6747C102.603 84.8803 102.73 85.1299 102.792 85.4235C102.863 85.7611 102.829 86.0871 102.691 86.4015C102.551 86.711 102.299 86.957 101.934 87.1394L103.597 88.9638L102.407 89.209ZM100.209 86.7749L101.069 86.5978C101.348 86.5403 101.542 86.4314 101.652 86.271C101.76 86.1058 101.789 85.9033 101.738 85.6635C101.689 85.4286 101.583 85.2617 101.419 85.1627C101.254 85.0589 101.032 85.0357 100.753 85.0932L99.8933 85.2703L100.209 86.7749ZM106.436 88.4477C106.044 88.5284 105.674 88.5154 105.324 88.4088C104.974 88.2972 104.675 88.1011 104.427 87.8203C104.183 87.5386 104.018 87.1898 103.931 86.7739C103.843 86.358 103.857 85.9723 103.971 85.6169C104.091 85.2605 104.291 84.9639 104.574 84.7271C104.855 84.4853 105.191 84.3241 105.583 84.2434C105.975 84.1626 106.349 84.1776 106.704 84.2881C107.058 84.3938 107.359 84.587 107.607 84.8677C107.86 85.1474 108.03 85.4952 108.118 85.9111C108.205 86.3271 108.187 86.7137 108.063 87.0711C107.943 87.4275 107.741 87.7271 107.454 87.9698C107.172 88.2067 106.833 88.366 106.436 88.4477ZM106.248 87.5523C106.434 87.5139 106.598 87.4341 106.742 87.3127C106.889 87.1854 106.992 87.0212 107.052 86.8199C107.112 86.6187 107.115 86.3884 107.06 86.1291C106.979 85.7425 106.814 85.4677 106.565 85.3046C106.32 85.1355 106.051 85.0813 105.757 85.1418C105.463 85.2024 105.238 85.3585 105.081 85.6103C104.928 85.8562 104.893 86.1724 104.974 86.5589C105.055 86.9455 105.213 87.2243 105.448 87.3954C105.688 87.5605 105.954 87.6128 106.248 87.5523ZM111.267 87.4522C110.875 87.533 110.505 87.52 110.155 87.4133C109.805 87.3017 109.506 87.1056 109.258 86.8249C109.015 86.5431 108.849 86.1943 108.762 85.7784C108.675 85.3625 108.688 84.9768 108.802 84.6215C108.922 84.2651 109.122 83.9684 109.405 83.7316C109.686 83.4899 110.023 83.3286 110.414 83.2479C110.806 83.1672 111.18 83.1821 111.535 83.2927C111.889 83.3983 112.19 83.5915 112.438 83.8722C112.691 84.152 112.862 84.4998 112.949 84.9157C113.036 85.3316 113.018 85.7183 112.894 86.0757C112.775 86.4321 112.572 86.7316 112.286 86.9744C112.003 87.2112 111.664 87.3705 111.267 87.4522ZM111.079 86.5568C111.265 86.5185 111.43 86.4386 111.573 86.3172C111.72 86.19 111.823 86.0257 111.883 85.8245C111.943 85.6232 111.946 85.393 111.891 85.1336C111.81 84.7471 111.645 84.4722 111.396 84.3091C111.151 84.1401 110.882 84.0858 110.588 84.1464C110.294 84.2069 110.069 84.3631 109.912 84.6148C109.76 84.8607 109.724 85.1769 109.805 85.5635C109.886 85.95 110.044 86.2288 110.28 86.3999C110.519 86.565 110.785 86.6173 111.079 86.5568ZM118.464 81.5968C118.964 81.4939 119.398 81.5653 119.766 81.811C120.139 82.0508 120.382 82.4447 120.497 82.9928L120.999 85.3781L119.97 85.59L119.498 83.3441C119.432 83.0261 119.3 82.8005 119.103 82.6674C118.906 82.5295 118.667 82.4893 118.388 82.5468C118.109 82.6043 117.904 82.7358 117.774 82.9414C117.647 83.1411 117.617 83.3999 117.684 83.718L118.156 85.9639L117.127 86.1758L116.656 83.9299C116.589 83.6118 116.457 83.3863 116.261 83.2532C116.063 83.1152 115.825 83.075 115.545 83.1325C115.261 83.191 115.054 83.3231 114.924 83.5287C114.797 83.7283 114.767 83.9872 114.834 84.3052L115.306 86.5512L114.277 86.7631L113.423 82.6969L114.451 82.485L114.555 82.9767C114.651 82.7782 114.792 82.6089 114.977 82.4686C115.167 82.3274 115.387 82.231 115.636 82.1796C115.955 82.114 116.253 82.124 116.532 82.2095C116.809 82.2902 117.043 82.4411 117.232 82.6624C117.315 82.4003 117.467 82.1726 117.686 81.9792C117.911 81.7848 118.171 81.6574 118.464 81.5968Z" fill="black"/>
<g filter="url(#filter0_b_1627_1925)">
<path d="M86.8454 70.2056C88.0763 69.4195 89.6515 69.4195 90.8823 70.2056L129.108 94.619C132.268 96.6366 130.838 101.529 127.09 101.529L50.6377 101.529C46.8893 101.529 45.4601 96.6366 48.6193 94.619L86.8454 70.2056Z" fill="white" fill-opacity="0.3"/>
<path d="M86.8454 70.2056C88.0763 69.4195 89.6515 69.4195 90.8823 70.2056L129.108 94.619C132.268 96.6366 130.838 101.529 127.09 101.529L50.6377 101.529C46.8893 101.529 45.4601 96.6366 48.6193 94.619L86.8454 70.2056Z" stroke="url(#paint3_linear_1627_1925)" stroke-opacity="0.7" stroke-width="0.249997"/>
</g>
<g filter="url(#filter1_b_1627_1925)">
<path d="M85.9421 74.8501C87.5538 75.8222 87.5538 78.1594 85.9421 79.1315L50.4704 100.527C48.8043 101.532 46.6793 100.332 46.6793 98.3861L46.6793 55.5955C46.6793 53.6497 48.8042 52.4498 50.4704 53.4548L85.9421 74.8501Z" fill="white" fill-opacity="0.3"/>
<path d="M85.9421 74.8501C87.5538 75.8222 87.5538 78.1594 85.9421 79.1315L50.4704 100.527C48.8043 101.532 46.6793 100.332 46.6793 98.3861L46.6793 55.5955C46.6793 53.6497 48.8042 52.4498 50.4704 53.4548L85.9421 74.8501Z" stroke="url(#paint4_linear_1627_1925)" stroke-opacity="0.7" stroke-width="0.249997"/>
</g>
<g filter="url(#filter2_b_1627_1925)">
<path d="M91.7864 74.8501C90.1747 75.8222 90.1747 78.1594 91.7864 79.1315L127.258 100.527C128.924 101.532 131.049 100.332 131.049 98.3861L131.049 55.5955C131.049 53.6497 128.924 52.4498 127.258 53.4548L91.7864 74.8501Z" fill="white" fill-opacity="0.3"/>
<path d="M91.7864 74.8501C90.1747 75.8222 90.1747 78.1594 91.7864 79.1315L127.258 100.527C128.924 101.532 131.049 100.332 131.049 98.3861L131.049 55.5955C131.049 53.6497 128.924 52.4498 127.258 53.4548L91.7864 74.8501Z" stroke="url(#paint5_linear_1627_1925)" stroke-opacity="0.7" stroke-width="0.249997"/>
</g>
<path d="M11.99 76.834C12.0561 76.6014 12.3857 76.6014 12.4518 76.834L13.7366 81.3583C13.7553 81.4243 13.8014 81.4791 13.8632 81.5089L17.4934 83.2593C17.6744 83.3466 17.6744 83.6044 17.4934 83.6916L13.8632 85.442C13.8014 85.4718 13.7553 85.5266 13.7366 85.5926L12.4518 90.1169C12.3857 90.3495 12.0561 90.3495 11.99 90.1169L10.7052 85.5926C10.6864 85.5266 10.6404 85.4718 10.5786 85.442L6.94836 83.6916C6.76734 83.6044 6.76734 83.3466 6.94836 83.2593L10.5786 81.5089C10.6404 81.4791 10.6864 81.4243 10.7052 81.3583L11.99 76.834Z" fill="url(#paint6_linear_1627_1925)"/>
<path d="M154.11 42.8418C154.176 42.6092 154.506 42.6092 154.572 42.8418L155.857 47.3661C155.875 47.4321 155.922 47.4869 155.983 47.5167L159.614 49.2671C159.795 49.3544 159.795 49.6122 159.614 49.6995L155.983 51.4498C155.922 51.4796 155.875 51.5344 155.857 51.6004L154.572 56.1248C154.506 56.3573 154.176 56.3573 154.11 56.1248L152.825 51.6004C152.807 51.5344 152.76 51.4796 152.699 51.4498L149.068 49.6995C148.887 49.6122 148.887 49.3544 149.068 49.2671L152.699 47.5167C152.76 47.4869 152.807 47.4321 152.825 47.3661L154.11 42.8418Z" fill="url(#paint7_linear_1627_1925)"/>
<path d="M164.647 70.8601C164.713 70.6285 165.042 70.6285 165.108 70.8601L166.474 75.6125C166.493 75.6785 166.539 75.7333 166.602 75.7628L170.445 77.5936C170.627 77.6805 170.627 77.9401 170.445 78.0269L166.602 79.8577C166.539 79.8873 166.493 79.942 166.474 80.0081L165.108 84.7604C165.042 84.992 164.713 84.992 164.647 84.7604L163.281 80.0081C163.262 79.942 163.215 79.8873 163.153 79.8577L159.31 78.0269C159.128 77.9401 159.128 77.6805 159.31 77.5936L163.153 75.7628C163.215 75.7333 163.262 75.6785 163.281 75.6125L164.647 70.8601Z" fill="url(#paint8_linear_1627_1925)"/>
<path d="M34.5706 14.8025C34.6372 14.5709 34.9654 14.5709 35.0319 14.8025L36.3979 19.5548C36.4169 19.6209 36.4633 19.6757 36.5253 19.7052L40.3684 21.536C40.5508 21.6229 40.5508 21.8824 40.3684 21.9693L36.5253 23.8001C36.4633 23.8296 36.4169 23.8844 36.3979 23.9504L35.0319 28.7028C34.9654 28.9344 34.6372 28.9344 34.5706 28.7028L33.2047 23.9504C33.1857 23.8844 33.1393 23.8296 33.0772 23.8001L29.2341 21.9693C29.0518 21.8824 29.0517 21.6229 29.2341 21.536L33.0772 19.7052C33.1393 19.6757 33.1857 19.6209 33.2047 19.5548L34.5706 14.8025Z" fill="url(#paint9_linear_1627_1925)"/>
<defs>
<filter id="filter0_b_1627_1925" x="45.8809" y="68.6162" width="85.9658" height="33.9131" filterUnits="userSpaceOnUse" color-interpolation-filters="sRGB">
<feFlood flood-opacity="0" result="BackgroundImageFix"/>
<feGaussianBlur in="BackgroundImageFix" stdDeviation="0.437494"/>
<feComposite in2="SourceAlpha" operator="in" result="effect1_backgroundBlur_1627_1925"/>
<feBlend mode="normal" in="SourceGraphic" in2="effect1_backgroundBlur_1627_1925" result="shape"/>
</filter>
<filter id="filter1_b_1627_1925" x="45.6797" y="52.0913" width="42.4707" height="49.7988" filterUnits="userSpaceOnUse" color-interpolation-filters="sRGB">
<feFlood flood-opacity="0" result="BackgroundImageFix"/>
<feGaussianBlur in="BackgroundImageFix" stdDeviation="0.437494"/>
<feComposite in2="SourceAlpha" operator="in" result="effect1_backgroundBlur_1627_1925"/>
<feBlend mode="normal" in="SourceGraphic" in2="effect1_backgroundBlur_1627_1925" result="shape"/>
</filter>
<filter id="filter2_b_1627_1925" x="89.5781" y="52.0913" width="42.4707" height="49.7988" filterUnits="userSpaceOnUse" color-interpolation-filters="sRGB">
<feFlood flood-opacity="0" result="BackgroundImageFix"/>
<feGaussianBlur in="BackgroundImageFix" stdDeviation="0.437494"/>
<feComposite in2="SourceAlpha" operator="in" result="effect1_backgroundBlur_1627_1925"/>
<feBlend mode="normal" in="SourceGraphic" in2="effect1_backgroundBlur_1627_1925" result="shape"/>
</filter>
<linearGradient id="paint0_linear_1627_1925" x1="88.5495" y1="19.2123" x2="88.5495" y2="62.701" gradientUnits="userSpaceOnUse">
<stop stop-color="white"/>
<stop offset="1" stop-color="white" stop-opacity="0"/>
</linearGradient>
<linearGradient id="paint1_linear_1627_1925" x1="32.0464" y1="0" x2="32.0464" y2="40.6956" gradientUnits="userSpaceOnUse">
<stop stop-color="#4C4C52"/>
<stop offset="1" stop-color="#363639"/>
</linearGradient>
<linearGradient id="paint2_linear_1627_1925" x1="87.1391" y1="42.8968" x2="90.0188" y2="66.5801" gradientUnits="userSpaceOnUse">
<stop offset="0.40625" stop-color="white"/>
<stop offset="1" stop-color="white" stop-opacity="0.49"/>
</linearGradient>
<linearGradient id="paint3_linear_1627_1925" x1="88.8639" y1="68.9165" x2="88.8639" y2="112.4" gradientUnits="userSpaceOnUse">
<stop stop-color="white"/>
<stop offset="1" stop-color="white" stop-opacity="0"/>
</linearGradient>
<linearGradient id="paint4_linear_1627_1925" x1="84.3838" y1="66.1199" x2="60.9447" y2="93.931" gradientUnits="userSpaceOnUse">
<stop stop-color="white"/>
<stop offset="1" stop-color="white" stop-opacity="0"/>
</linearGradient>
<linearGradient id="paint5_linear_1627_1925" x1="93.3447" y1="66.1199" x2="116.784" y2="93.931" gradientUnits="userSpaceOnUse">
<stop stop-color="white"/>
<stop offset="1" stop-color="white" stop-opacity="0"/>
</linearGradient>
<linearGradient id="paint6_linear_1627_1925" x1="12.2209" y1="76.021" x2="12.2209" y2="90.9299" gradientUnits="userSpaceOnUse">
<stop stop-color="white"/>
<stop offset="1" stop-color="white" stop-opacity="0"/>
</linearGradient>
<linearGradient id="paint7_linear_1627_1925" x1="154.341" y1="42.0288" x2="154.341" y2="56.9377" gradientUnits="userSpaceOnUse">
<stop stop-color="white"/>
<stop offset="1" stop-color="white" stop-opacity="0"/>
</linearGradient>
<linearGradient id="paint8_linear_1627_1925" x1="164.877" y1="70.0576" x2="164.877" y2="85.5629" gradientUnits="userSpaceOnUse">
<stop stop-color="white"/>
<stop offset="1" stop-color="white" stop-opacity="0"/>
</linearGradient>
<linearGradient id="paint9_linear_1627_1925" x1="34.8013" y1="14" x2="34.8013" y2="29.5053" gradientUnits="userSpaceOnUse">
<stop stop-color="white"/>
<stop offset="1" stop-color="white" stop-opacity="0"/>
</linearGradient>
</defs>
</svg>
