<svg width="14" height="14" viewBox="0 0 14 14" fill="none" xmlns="http://www.w3.org/2000/svg">
<path d="M10.3177 1.3125H3.68229C3.05401 1.31325 2.45169 1.56317 2.00743 2.00743C1.56317 2.45169 1.31325 3.05401 1.3125 3.68229L1.3125 10.3177C1.31325 10.946 1.56317 11.5483 2.00743 11.9926C2.45169 12.4368 3.05401 12.6867 3.68229 12.6875H10.3177C10.946 12.6867 11.5483 12.4368 11.9926 11.9926C12.4368 11.5483 12.6867 10.946 12.6875 10.3177V3.68229C12.6867 3.05401 12.4368 2.45169 11.9926 2.00743C11.5483 1.56317 10.946 1.31325 10.3177 1.3125ZM11.7396 10.3177C11.7396 10.6948 11.5898 11.0565 11.3231 11.3231C11.0565 11.5898 10.6948 11.7396 10.3177 11.7396H3.68229C3.30519 11.7396 2.94353 11.5898 2.67687 11.3231C2.41022 11.0565 2.26042 10.6948 2.26042 10.3177V3.68229C2.26042 3.30519 2.41022 2.94353 2.67687 2.67687C2.94353 2.41022 3.30519 2.26042 3.68229 2.26042H10.3177C10.6948 2.26042 11.0565 2.41022 11.3231 2.67687C11.5898 2.94353 11.7396 3.30519 11.7396 3.68229V10.3177Z" fill="white"/>
<path d="M4.62988 6.05225C4.9111 6.05225 5.18601 5.96885 5.41983 5.81262C5.65366 5.65638 5.83591 5.43431 5.94352 5.1745C6.05114 4.91469 6.0793 4.62879 6.02444 4.35298C5.96957 4.07716 5.83415 3.82381 5.6353 3.62495C5.43645 3.4261 5.18309 3.29068 4.90728 3.23582C4.63146 3.18095 4.34557 3.20911 4.08575 3.31673C3.82594 3.42435 3.60387 3.60659 3.44764 3.84042C3.2914 4.07425 3.20801 4.34915 3.20801 4.63037C3.20801 5.00748 3.35781 5.36914 3.62447 5.63579C3.89112 5.90244 4.25278 6.05225 4.62988 6.05225ZM4.62988 4.15641C4.72362 4.15641 4.81526 4.18421 4.8932 4.23629C4.97114 4.28837 5.03189 4.36239 5.06776 4.449C5.10364 4.5356 5.11302 4.6309 5.09473 4.72284C5.07645 4.81478 5.03131 4.89923 4.96502 4.96551C4.89874 5.0318 4.81429 5.07694 4.72235 5.09522C4.63041 5.11351 4.53511 5.10412 4.44851 5.06825C4.3619 5.03238 4.28788 4.97163 4.2358 4.89369C4.18372 4.81575 4.15592 4.72411 4.15592 4.63037C4.15592 4.50467 4.20586 4.38412 4.29474 4.29523C4.38363 4.20635 4.50418 4.15641 4.62988 4.15641Z" fill="white"/>
<path d="M9.23056 6.19076C9.18551 6.14378 9.13086 6.10705 9.07034 6.08309C9.00981 6.05913 8.94484 6.04849 8.87983 6.05189C8.81494 6.05417 8.75121 6.06969 8.69253 6.09748C8.63385 6.12527 8.58146 6.16475 8.53858 6.21351L7.10249 7.85293L5.91285 6.66282C5.82397 6.57397 5.70344 6.52405 5.57776 6.52405C5.45209 6.52405 5.33156 6.57397 5.24268 6.66282L3.34684 8.55865C3.30157 8.60238 3.26547 8.65468 3.24063 8.7125C3.21579 8.77032 3.20271 8.83252 3.20217 8.89545C3.20162 8.95838 3.21361 9.02079 3.23744 9.07904C3.26127 9.13729 3.29647 9.19021 3.34097 9.23471C3.38547 9.27921 3.43839 9.3144 3.49663 9.33823C3.55488 9.36206 3.61729 9.37406 3.68023 9.37351C3.74316 9.37296 3.80535 9.35989 3.86317 9.33505C3.921 9.31021 3.9733 9.2741 4.01702 9.22883L5.57776 7.66998L6.47829 8.5705L5.22087 10.0052C5.13804 10.0998 5.09619 10.2235 5.10455 10.349C5.1129 10.4745 5.17077 10.5916 5.26543 10.6744C5.36008 10.7572 5.48376 10.7991 5.60927 10.7907C5.73477 10.7824 5.85182 10.7245 5.93466 10.6299L7.45985 8.88663H7.4627L7.46601 8.88142L8.9187 7.22257L9.98226 8.28613C10.0716 8.37246 10.1914 8.42024 10.3156 8.41916C10.4399 8.41808 10.5588 8.36823 10.6467 8.28036C10.7345 8.19248 10.7844 8.07361 10.7855 7.94933C10.7865 7.82506 10.7388 7.70534 10.6524 7.61595L9.23056 6.19076Z" fill="white"/>
</svg>
