<svg width="12" height="12" viewBox="0 0 12 12" fill="none" xmlns="http://www.w3.org/2000/svg">
<path d="M8.84375 1.125H3.15625C2.61773 1.12565 2.10145 1.33986 1.72065 1.72065C1.33986 2.10145 1.12565 2.61773 1.125 3.15625L1.125 8.84375C1.12565 9.38227 1.33986 9.89855 1.72065 10.2793C2.10145 10.6601 2.61773 10.8744 3.15625 10.875H8.84375C9.38227 10.8744 9.89855 10.6601 10.2793 10.2793C10.6601 9.89855 10.8744 9.38227 10.875 8.84375V3.15625C10.8744 2.61773 10.6601 2.10145 10.2793 1.72065C9.89855 1.33986 9.38227 1.12565 8.84375 1.125ZM10.0625 8.84375C10.0625 9.16698 9.9341 9.47698 9.70554 9.70554C9.47698 9.9341 9.16698 10.0625 8.84375 10.0625H3.15625C2.83302 10.0625 2.52302 9.9341 2.29446 9.70554C2.0659 9.47698 1.9375 9.16698 1.9375 8.84375V3.15625C1.9375 2.83302 2.0659 2.52302 2.29446 2.29446C2.52302 2.0659 2.83302 1.9375 3.15625 1.9375H8.84375C9.16698 1.9375 9.47698 2.0659 9.70554 2.29446C9.9341 2.52302 10.0625 2.83302 10.0625 3.15625V8.84375Z" fill="white" fill-opacity="0.5"/>
<path d="M3.96875 5.1875C4.2098 5.1875 4.44543 5.11602 4.64585 4.9821C4.84627 4.84819 5.00248 4.65784 5.09473 4.43515C5.18697 4.21245 5.21111 3.9674 5.16408 3.73098C5.11706 3.49457 5.00098 3.27741 4.83054 3.10696C4.66009 2.93652 4.44293 2.82044 4.20652 2.77342C3.9701 2.72639 3.72505 2.75053 3.50235 2.84277C3.27966 2.93502 3.08931 3.09123 2.9554 3.29165C2.82148 3.49207 2.75 3.7277 2.75 3.96875C2.75 4.29198 2.8784 4.60198 3.10696 4.83054C3.33552 5.0591 3.64552 5.1875 3.96875 5.1875ZM3.96875 3.5625C4.0491 3.5625 4.12764 3.58633 4.19445 3.63097C4.26126 3.67561 4.31333 3.73905 4.34408 3.81329C4.37482 3.88752 4.38287 3.9692 4.36719 4.04801C4.35152 4.12681 4.31283 4.1992 4.25601 4.25601C4.1992 4.31283 4.12681 4.35152 4.04801 4.36719C3.9692 4.38287 3.88752 4.37482 3.81328 4.34408C3.73905 4.31333 3.6756 4.26126 3.63097 4.19445C3.58633 4.12764 3.5625 4.0491 3.5625 3.96875C3.5625 3.86101 3.6053 3.75768 3.68149 3.68149C3.75767 3.6053 3.86101 3.5625 3.96875 3.5625Z" fill="white" fill-opacity="0.5"/>
<path d="M7.91233 5.30657C7.87371 5.2663 7.82687 5.23483 7.77499 5.21429C7.72311 5.19375 7.66742 5.18463 7.6117 5.18754C7.55608 5.1895 7.50145 5.2028 7.45116 5.22662C7.40086 5.25044 7.35596 5.28428 7.3192 5.32607L6.08827 6.73129L5.06858 5.7112C4.99239 5.63504 4.88908 5.59226 4.78136 5.59226C4.67364 5.59226 4.57032 5.63504 4.49414 5.7112L2.86914 7.3362C2.83034 7.37367 2.79939 7.4185 2.7781 7.46807C2.75681 7.51763 2.7456 7.57094 2.74513 7.62488C2.74466 7.67882 2.75494 7.73232 2.77537 7.78224C2.7958 7.83217 2.82596 7.87753 2.8641 7.91567C2.90225 7.95382 2.94761 7.98398 2.99753 8.00441C3.04746 8.02484 3.10096 8.03511 3.1549 8.03465C3.20884 8.03418 3.26215 8.02297 3.31171 8.00168C3.36128 7.98039 3.4061 7.94944 3.44358 7.91064L4.78136 6.57448L5.55323 7.34636L4.47545 8.57607C4.40445 8.65721 4.36858 8.76322 4.37575 8.8708C4.38291 8.97837 4.43251 9.0787 4.51364 9.1497C4.59477 9.2207 4.70079 9.25657 4.80836 9.24941C4.91594 9.24225 5.01626 9.19264 5.08727 9.11151L6.39458 7.61732H6.39702L6.39986 7.61286L7.64502 6.19098L8.55664 7.10261C8.63326 7.17661 8.73588 7.21756 8.8424 7.21663C8.94891 7.2157 9.05081 7.17298 9.12613 7.09766C9.20145 7.02233 9.24418 6.92044 9.2451 6.81392C9.24603 6.70741 9.20508 6.60479 9.13108 6.52817L7.91233 5.30657Z" fill="white" fill-opacity="0.5"/>
</svg>
