<svg width="28" height="28" viewBox="0 0 28 28" fill="none" xmlns="http://www.w3.org/2000/svg">
<path fill-rule="evenodd" clip-rule="evenodd" d="M6.92961 6.92961C6.53909 7.32014 6.53909 7.9533 6.92961 8.34383L12.5865 14.0007L6.92961 19.6575C6.53909 20.0481 6.53909 20.6812 6.92961 21.0717C7.32014 21.4623 7.9533 21.4623 8.34383 21.0717L14.0007 15.4149L19.6575 21.0717C20.0481 21.4623 20.6812 21.4623 21.0717 21.0717C21.4623 20.6812 21.4623 20.0481 21.0717 19.6575L15.4149 14.0007L21.0717 8.34383C21.4623 7.9533 21.4623 7.32014 21.0717 6.92961C20.6812 6.53909 20.0481 6.53909 19.6575 6.92961L14.0007 12.5865L8.34383 6.92961C7.9533 6.53909 7.32014 6.53909 6.92961 6.92961Z" fill="white"/>
</svg>
