<svg width="32" height="32" viewBox="0 0 32 32" fill="none" xmlns="http://www.w3.org/2000/svg">
<g id="alarm">
<path id="Vector" d="M16.6662 10.7934H14.6662V18.7934L20.9995 22.5934L21.9995 20.9534L16.6662 17.7934V10.7934ZM23.1155 2.54004L29.2582 7.66671L27.5515 9.71337L21.4049 4.58937L23.1155 2.54004ZM8.88352 2.54004L10.5929 4.58804L4.44885 9.71337L2.74219 7.66537L8.88352 2.54004ZM15.9995 5.46004C9.37285 5.46004 3.99952 10.8334 3.99952 17.46C3.99952 24.0867 9.37285 29.46 15.9995 29.46C22.6262 29.46 27.9995 24.0867 27.9995 17.46C27.9995 10.8334 22.6262 5.46004 15.9995 5.46004ZM15.9995 26.7934C10.8529 26.7934 6.66619 22.6067 6.66619 17.46C6.66619 12.3134 10.8529 8.12671 15.9995 8.12671C21.1462 8.12671 25.3329 12.3134 25.3329 17.46C25.3329 22.6067 21.1462 26.7934 15.9995 26.7934Z" fill="white"/>
</g>
</svg>
