<svg width="114" height="17" viewBox="0 0 114 17" fill="none" xmlns="http://www.w3.org/2000/svg">
<g clip-path="url(#clip0_56350_32810)">
<path d="M5.01205 8.47785C4.29918 7.84125 3.16893 8.34724 3.16893 9.30298V14.7054C3.16893 15.3164 2.67364 15.8117 2.06267 15.8117H1.10626C0.495289 15.8117 0 15.3164 0 14.7054V2.54454C0 1.58803 1.13184 1.08233 1.84434 1.7205L9.45326 8.53572C9.68755 8.74557 9.82144 9.04523 9.82144 9.35976V10.3016C9.82144 11.2574 8.69118 11.7634 7.97832 11.1268L5.01205 8.47785ZM10.2709 1.449C10.2709 0.838027 10.7662 0.342738 11.3772 0.342738H12.3336C12.9446 0.342738 13.4399 0.838027 13.4399 1.449V13.6373C13.4399 14.5931 12.3095 15.099 11.5967 14.4623L10.6627 13.6281C10.4277 13.4182 10.2934 13.1181 10.2934 12.8031V3.27867C10.2934 3.27247 10.2884 3.26744 10.2822 3.26744C10.276 3.26744 10.2709 3.26241 10.2709 3.2562V1.449Z" fill="white"/>
<path d="M16.439 1.449C16.439 0.838028 16.9343 0.342738 17.5453 0.342738H18.5017C19.1126 0.342738 19.6079 0.838027 19.6079 1.449V14.7054C19.6079 15.3164 19.1126 15.8117 18.5017 15.8117H17.5453C16.9343 15.8117 16.439 15.3164 16.439 14.7054V1.449ZM25.3564 12.5899C25.9674 12.5899 26.4627 13.0852 26.4627 13.6962V14.7054C26.4627 15.3164 25.9674 15.8117 25.3564 15.8117H21.2761C20.6651 15.8117 20.1698 15.3164 20.1698 14.7054V13.6962C20.1698 13.0852 20.6651 12.5899 21.2761 12.5899H25.3564ZM25.3564 0.342738C25.9674 0.342738 26.4627 0.838027 26.4627 1.449V2.45822C26.4627 3.06919 25.9674 3.56448 25.3564 3.56448H21.2761C20.6651 3.56448 20.1698 3.06919 20.1698 2.45822V1.449C20.1698 0.838026 20.6651 0.342738 21.2761 0.342738H25.3564ZM24.3451 6.46633C24.9561 6.46633 25.4513 6.96162 25.4513 7.57259V8.55896C25.4513 9.16993 24.9561 9.66522 24.3451 9.66522H21.2761C20.6651 9.66522 20.1698 9.16993 20.1698 8.55896V7.57259C20.1698 6.96162 20.6651 6.46633 21.2761 6.46633H24.3451Z" fill="white"/>
<path d="M41.1033 15.3597C41.1111 15.3716 41.118 15.384 41.124 15.3968C41.214 15.5902 41.0729 15.8117 40.8596 15.8117H38.1824C37.8104 15.8117 37.4633 15.6247 37.2586 15.314L35.2891 12.3245C34.8481 11.655 33.8628 11.6619 33.4218 12.3314C33.1945 12.6766 32.9645 13.0217 32.7319 13.3668C32.2924 14.0068 31.8623 14.6516 31.4417 15.3013C31.2363 15.6185 30.885 15.8117 30.5071 15.8117H27.9196C27.7349 15.8117 27.5852 15.6619 27.5852 15.4773C27.5852 15.4122 27.6042 15.3485 27.6398 15.2941L32.0177 8.60745C32.2601 8.23724 32.2585 7.75833 32.0144 7.38922C31.3306 6.35482 30.6258 5.27793 29.9001 4.15856C29.431 3.43498 28.9707 2.72915 28.519 2.04108C28.0347 1.30321 28.5627 0.319889 29.4453 0.319889H30.6062C30.979 0.319889 31.3268 0.507718 31.5313 0.819522L33.4294 3.71419C33.8651 4.37861 34.8381 4.38061 35.2733 3.71586C35.49 3.38489 35.7066 3.05262 35.9233 2.71906C36.3505 2.0676 36.773 1.43047 37.1908 0.807674C37.3956 0.502381 37.7394 0.319889 38.107 0.319889H39.2639C40.1447 0.319889 40.6723 1.29911 40.1878 2.03466L36.661 7.38912C36.4179 7.75814 36.4178 8.23641 36.6606 8.60558L41.1033 15.3597Z" fill="white"/>
<path d="M47.117 15.8117C46.5061 15.8117 46.0108 15.3164 46.0108 14.7054V5.08202C46.0108 4.47105 46.5061 3.97576 47.117 3.97576H48.0734C48.6844 3.97576 49.1797 4.47105 49.1797 5.08202V14.7054C49.1797 15.3164 48.6844 15.8117 48.0734 15.8117H47.117ZM52.2313 0.29704C52.8422 0.29704 53.3375 0.792329 53.3375 1.4033V2.41252C53.3375 3.02349 52.8422 3.51878 52.2313 3.51878H43.0491C42.4381 3.51878 41.9428 3.02349 41.9428 2.41252V1.4033C41.9428 0.792328 42.4381 0.29704 43.0491 0.29704H52.2313Z" fill="white"/>
<path d="M61.6749 0.342738C62.3042 0.342738 62.896 0.464601 63.4504 0.708326C64.0198 0.95205 64.5067 1.28717 64.9113 1.71369C65.3308 2.12498 65.6604 2.62004 65.9002 3.19889C66.1549 3.7625 66.2822 4.3642 66.2822 5.00398C66.2822 5.65899 66.1549 6.2683 65.9002 6.83191C65.6604 7.39553 65.3308 7.89059 64.9113 8.31711C64.5067 8.7284 64.0198 9.0559 63.4504 9.29963C62.896 9.54335 62.3042 9.66522 61.6749 9.66522H59.3201C58.7091 9.66522 58.2138 10.1605 58.2138 10.7715V14.7054C58.2138 15.3164 57.7185 15.8117 57.1076 15.8117H56.1736C55.5626 15.8117 55.0674 15.3164 55.0674 14.7054V1.449C55.0674 0.838028 55.5626 0.342738 56.1736 0.342738H61.6749ZM61.6749 6.46633C62.0795 6.46633 62.4166 6.32923 62.6863 6.05504C62.971 5.76562 63.1133 5.41526 63.1133 5.00398C63.1133 4.59269 62.971 4.24995 62.6863 3.97576C62.4166 3.70157 62.0795 3.56448 61.6749 3.56448H59.3201C58.7091 3.56448 58.2138 4.05977 58.2138 4.67074V5.36007C58.2138 5.97104 58.7091 6.46633 59.3201 6.46633H61.6749ZM60.0259 11.9613C59.4233 11.2412 59.9353 10.145 60.8743 10.145H61.7875C62.115 10.145 62.4257 10.2902 62.6358 10.5413L65.5264 13.9954C66.1291 14.7155 65.6171 15.8117 64.678 15.8117H63.7649C63.4374 15.8117 63.1267 15.6665 62.9165 15.4154L60.0259 11.9613Z" fill="white"/>
<path d="M74.8807 0.342738C75.9295 0.342738 76.9184 0.548381 77.8474 0.959667C78.7763 1.35572 79.5854 1.9041 80.2746 2.60481C80.9789 3.30552 81.5257 4.12809 81.9153 5.07253C82.3198 6.01696 82.5221 7.02232 82.5221 8.08862C82.5221 9.15492 82.3198 10.1603 81.9153 11.1047C81.5257 12.0339 80.9789 12.8489 80.2746 13.5496C79.5854 14.2503 78.7763 14.8063 77.8474 15.2176C76.9184 15.6136 75.9295 15.8117 74.8807 15.8117C73.8319 15.8117 72.843 15.6136 71.9141 15.2176C71.0001 14.8063 70.1985 14.2503 69.5093 13.5496C68.82 12.8489 68.2732 12.0339 67.8686 11.1047C67.4791 10.1603 67.2843 9.15492 67.2843 8.08862C67.2843 7.02232 67.4791 6.01696 67.8686 5.07253C68.2732 4.12809 68.82 3.30552 69.5093 2.60481C70.1985 1.9041 71.0001 1.35572 71.9141 0.959667C72.843 0.548381 73.8319 0.342738 74.8807 0.342738ZM74.8807 12.5899C75.495 12.5899 76.0719 12.4757 76.6113 12.2472C77.1656 12.0035 77.6451 11.6836 78.0497 11.2875C78.4542 10.8762 78.7688 10.3964 78.9936 9.84801C79.2333 9.29963 79.3532 8.71317 79.3532 8.08862C79.3532 7.46408 79.2333 6.87761 78.9936 6.32923C78.7688 5.78085 78.4542 5.30102 78.0497 4.88973C77.6451 4.47845 77.1656 4.15856 76.6113 3.93006C76.0719 3.68634 75.495 3.56448 74.8807 3.56448C74.2664 3.56448 73.6896 3.68634 73.1502 3.93006C72.6258 4.15856 72.1613 4.47845 71.7567 4.88973C71.3522 5.30102 71.0301 5.78085 70.7903 6.32923C70.5656 6.87761 70.4532 7.46408 70.4532 8.08862C70.4532 8.71317 70.5656 9.29963 70.7903 9.84801C71.0301 10.3964 71.3522 10.8762 71.7567 11.2875C72.1613 11.6836 72.6258 12.0035 73.1502 12.2472C73.6896 12.4757 74.2664 12.5899 74.8807 12.5899Z" fill="white"/>
<path d="M91.5611 0.342738C92.61 0.342738 93.5989 0.548381 94.5278 0.959667C95.4568 1.35572 96.2658 1.9041 96.9551 2.60481C97.6593 3.30552 98.2062 4.12809 98.5957 5.07253C99.0003 6.01696 99.2025 7.02232 99.2025 8.08862C99.2025 9.15492 99.0003 10.1603 98.5957 11.1047C98.2062 12.0339 97.6593 12.8489 96.9551 13.5496C96.2658 14.2503 95.4568 14.8063 94.5278 15.2176C93.5989 15.6136 92.61 15.8117 91.5611 15.8117C90.5123 15.8117 89.5234 15.6136 88.5945 15.2176C87.6805 14.8063 86.8789 14.2503 86.1897 13.5496C85.5005 12.8489 84.9536 12.0339 84.549 11.1047C84.1595 10.1603 83.9647 9.15492 83.9647 8.08862C83.9647 7.02232 84.1595 6.01696 84.549 5.07253C84.9536 4.12809 85.5005 3.30552 86.1897 2.60481C86.8789 1.9041 87.6805 1.35572 88.5945 0.959667C89.5234 0.548381 90.5123 0.342738 91.5611 0.342738ZM91.5611 12.5899C92.1755 12.5899 92.7523 12.4757 93.2917 12.2472C93.8461 12.0035 94.3255 11.6836 94.7301 11.2875C95.1346 10.8762 95.4493 10.3964 95.674 9.84801C95.9137 9.29963 96.0336 8.71317 96.0336 8.08862C96.0336 7.46408 95.9137 6.87761 95.674 6.32923C95.4493 5.78085 95.1346 5.30102 94.7301 4.88973C94.3255 4.47845 93.8461 4.15856 93.2917 3.93006C92.7523 3.68634 92.1755 3.56448 91.5611 3.56448C90.9468 3.56448 90.37 3.68634 89.8306 3.93006C89.3062 4.15856 88.8417 4.47845 88.4372 4.88973C88.0326 5.30102 87.7105 5.78085 87.4708 6.32923C87.246 6.87761 87.1336 7.46408 87.1336 8.08862C87.1336 8.71317 87.246 9.29963 87.4708 9.84801C87.7105 10.3964 88.0326 10.8762 88.4372 11.2875C88.8417 11.6836 89.3062 12.0035 89.8306 12.2472C90.37 12.4757 90.9468 12.5899 91.5611 12.5899Z" fill="white"/>
<path d="M112.098 1.96799C112.789 1.25268 114 1.74201 114 2.73674V14.7054C114 15.3164 113.505 15.8117 112.894 15.8117H111.96C111.349 15.8117 110.854 15.3164 110.854 14.7054V10.1915C110.854 9.3729 109.873 8.95251 109.28 9.5167C108.687 10.0809 107.707 9.66049 107.707 8.84193V6.9592C107.707 6.67236 107.819 6.39673 108.018 6.19046L112.098 1.96799ZM106.879 6.19046C107.079 6.39673 107.19 6.67236 107.19 6.9592V8.84193C107.19 9.66049 106.21 10.0809 105.617 9.5167C105.024 8.95251 104.044 9.3729 104.044 10.1915V14.7054C104.044 15.3164 103.548 15.8117 102.937 15.8117H102.004C101.393 15.8117 100.897 15.3164 100.897 14.7054V2.73674C100.897 1.74201 102.108 1.25268 102.799 1.96799L106.879 6.19046Z" fill="white"/>
</g>
<defs>
<clipPath id="clip0_56350_32810">
<rect width="114" height="16.1087" fill="white"/>
</clipPath>
</defs>
</svg>
